<svg id="Layer_1" data-name="Layer 1" xmlns="http://www.w3.org/2000/svg" viewBox="0 0 2945 677"><defs><style>.cls-1{fill:#edab54;}.cls-2{fill:#ffe180;}.cls-3{fill:#f1d368;}.cls-4{opacity:0.65;}</style></defs><title>logo-horizontal-light</title><path class="cls-1" d="M694.26,399.5l24.28-29.27c12.38,10.71,28.8,18.09,42.84,18.09,15.71,0,23.09-5.95,23.09-15.47,0-10.24-9.76-13.57-25-20l-22.61-9.52c-18.57-7.38-36-22.85-36-48.55,0-29.76,26.66-53.56,64.27-53.56,20.47,0,42.13,7.86,57.6,23.33l-21.18,26.66c-11.67-8.81-22.61-13.57-36.42-13.57-13.09,0-21,5.23-21,14.52,0,10,11,13.8,26.66,20L793,321c21.9,8.8,35,23.56,35,48.55C828,399,803.27,425,760.43,425,737.34,425,712.59,416.4,694.26,399.5Z"/><path class="cls-1" d="M886.58,279.78H838.73V244.31H977.26v35.47H929.18V421.64h-42.6Z"/><path class="cls-1" d="M1004.63,244.31h42.61V421.64h-42.61Z"/><path class="cls-1" d="M1079.84,334.05c0-59,39.51-92.83,84.5-92.83,23.09,0,41.65,10.71,53.79,23.09L1196,291.44c-9-8.09-18.33-13.8-31-13.8-22.85,0-41.65,20.47-41.65,55,0,35.23,16.18,55.7,41.18,55.7,14.28,0,25.46-7.14,33.8-16.19l22.37,26.66c-15,17.38-34.75,26.18-57.84,26.18C1117.92,425,1079.84,394,1079.84,334.05Z"/><path class="cls-1" d="M1246.69,244.31h42.6v70.22h.72l50.22-70.22h46.65l-53.55,71.17,63.55,106.16h-46.42L1308.57,349l-19.28,26.19v46.41h-42.6Z"/><path class="cls-1" d="M1438.53,359l-53.32-114.73h45.22l14.76,39.52c4.76,13.33,9.28,25.7,14.28,39.51h1c5-13.81,9.76-26.18,14.76-39.51l14.76-39.52h44.51L1480.9,359v62.6h-42.37Z"/><path class="cls-1" d="M1641.31,279.78h-47.84V244.31H1732v35.47h-48.08V421.64h-42.61Z"/><path class="cls-1" d="M1759.36,244.31H1802v67.6h58.32v-67.6h42.36V421.64h-42.36V348.81H1802v72.83h-42.61Z"/><path class="cls-1" d="M1935.49,332.15c0-58.08,32.85-90.93,81.17-90.93s81.16,33.09,81.16,90.93c0,58.07-32.84,92.82-81.16,92.82S1935.49,390.22,1935.49,332.15Zm119,0c0-34.28-14.51-54.51-37.84-54.51s-37.61,20.23-37.61,54.51,14.28,56.17,37.61,56.17S2054.5,366.42,2054.5,332.15Z"/><path class="cls-1" d="M2129.71,338.33v-94h42.37v98.55c0,33.56,10,45.46,29.52,45.46,19.28,0,30-11.9,30-45.46V244.31h40.94v94c0,59.75-23.81,86.64-70.93,86.64C2154.23,425,2129.71,398.08,2129.71,338.33Z"/><path class="cls-1" d="M2304.17,334.05c0-59,39.75-92.83,87.12-92.83,25.94,0,44.51,10.95,56.65,23.09l-22.37,27.13c-8.81-7.85-18.09-13.8-32.85-13.8-26.18,0-45,20.47-45,55,0,35.23,15.71,55.7,48.8,55.7,6.18,0,12.85-1.67,16.66-4.52V355.23H2385.1V320.48H2451v82.83c-12.37,11.9-34.27,21.66-59,21.66C2343,425,2304.17,394,2304.17,334.05Z"/><path class="cls-1" d="M2486.73,244.31h42.61v67.6h58.31v-67.6H2630V421.64h-42.37V348.81h-58.31v72.83h-42.61Z"/><path class="cls-1" d="M2705.23,279.78h-47.85V244.31h138.53v35.47h-48.08V421.64h-42.6Z"/><path class="cls-1" d="M2805.9,399.5l24.28-29.27c12.38,10.71,28.8,18.09,42.85,18.09,15.71,0,23.08-5.95,23.08-15.47,0-10.24-9.75-13.57-25-20l-22.61-9.52c-18.57-7.38-35.94-22.85-35.94-48.55,0-29.76,26.66-53.56,64.26-53.56,20.47,0,42.13,7.86,57.61,23.33l-21.19,26.66c-11.66-8.81-22.61-13.57-36.42-13.57-13.09,0-20.94,5.23-20.94,14.52,0,10,11,13.8,26.66,20l22.13,8.81c21.9,8.8,35,23.56,35,48.55,0,29.52-24.75,55.46-67.6,55.46C2849,425,2824.23,416.4,2805.9,399.5Z"/><path class="cls-1" d="M54.64,146.33V584.54A14.47,14.47,0,0,0,69.1,599H584.18a14.46,14.46,0,0,0,14.46-14.46V146.33L309.56,135.39Z"/><path class="cls-2" d="M598.64,146.05h-544V69.46A14.47,14.47,0,0,1,69.1,55H584.18a14.46,14.46,0,0,1,14.46,14.46Z"/><path class="cls-3" d="M565.8,491.31l32.84-32.84H565.8Z"/><g class="cls-4"><path d="M326.64,183.3A151.38,151.38,0,0,0,175.43,334.51v118.8a32.41,32.41,0,0,0,32.4,32.41H251a10.81,10.81,0,0,0,10.8-10.8v-108a10.8,10.8,0,0,0-10.8-10.8H207.83a31.88,31.88,0,0,0-10.8,2v-23.6a129.61,129.61,0,0,1,259.22,0v23.6a31.88,31.88,0,0,0-10.8-2h-43.2a10.79,10.79,0,0,0-10.8,10.8v108a10.8,10.8,0,0,0,10.8,10.8h43.2a32.4,32.4,0,0,0,32.4-32.4V334.51A151.37,151.37,0,0,0,326.64,183.3Z"/></g><path class="cls-2" d="M458.11,599V466.46a8,8,0,0,1,8-8H598.64Z"/><g class="cls-4"><path d="M326.64,444.23A24.41,24.41,0,0,0,351,419.89v-39a24.35,24.35,0,0,0-48.7,0v39a24.41,24.41,0,0,0,24.35,24.34Z"/><path d="M369,406.72a4.87,4.87,0,0,0-8.29,3.42v9.75a34.09,34.09,0,0,1-68.18,0v-9.75a4.87,4.87,0,0,0-9.74,0v9.75a43.85,43.85,0,0,0,39,43.52v10H302.29a4.87,4.87,0,0,0,0,9.74H351a4.87,4.87,0,0,0,0-9.74H331.51v-10a43.82,43.82,0,0,0,39-43.52v-9.75A4.68,4.68,0,0,0,369,406.72Z"/></g></svg>