<svg id="Layer_1" data-name="Layer 1" xmlns="http://www.w3.org/2000/svg" viewBox="0 0 1080 720"><defs><style>.cls-1{fill:#edab54;}.cls-2{fill:#ffe180;}.cls-3{fill:#f1d368;}.cls-4{opacity:0.65;}</style></defs><title>[Asset] logo-vertical shape</title><path class="cls-1" d="M292.14,122.59V525.35a13.3,13.3,0,0,0,13.3,13.3H778.85a13.3,13.3,0,0,0,13.29-13.3V122.59l-265.7-10.06Z"/><path class="cls-2" d="M792.14,122.34h-500V51.94a13.29,13.29,0,0,1,13.3-13.29H778.85a13.29,13.29,0,0,1,13.29,13.29Z"/><path class="cls-3" d="M762,439.67l30.18-30.18H762Z"/><g class="cls-4"><path d="M542.14,156.57a139.13,139.13,0,0,0-139,139V404.74a29.79,29.79,0,0,0,29.78,29.79h39.71a9.93,9.93,0,0,0,9.93-9.93V325.33a9.92,9.92,0,0,0-9.93-9.93H432.94a29.44,29.44,0,0,0-9.92,1.84v-21.7a119.13,119.13,0,0,1,238.25,0v21.7a29.55,29.55,0,0,0-9.93-1.84H611.63a9.92,9.92,0,0,0-9.92,9.93V424.6a9.93,9.93,0,0,0,9.92,9.93h39.71a29.78,29.78,0,0,0,29.78-29.79V295.55A139.12,139.12,0,0,0,542.14,156.57Z"/></g><path class="cls-2" d="M663,538.65V416.83a7.34,7.34,0,0,1,7.35-7.34H792.14Z"/><g class="cls-4"><path d="M542.14,396.4A22.45,22.45,0,0,0,564.52,374V338.21a22.38,22.38,0,0,0-44.76,0V374a22.47,22.47,0,0,0,22.38,22.38Z"/><path d="M581.1,361.92a4.48,4.48,0,0,0-7.63,3.15V374a31.33,31.33,0,0,1-62.66,0v-8.95a4.48,4.48,0,0,0-8.95,0V374a40.26,40.26,0,0,0,35.81,40v9.23H519.76a4.48,4.48,0,0,0,0,9h44.76a4.48,4.48,0,0,0,0-9h-17.9V414a40.28,40.28,0,0,0,35.81-40v-8.95A4.33,4.33,0,0,0,581.1,361.92Z"/></g><path class="cls-1" d="M93.64,673.22l9.66-11.64c4.92,4.26,11.45,7.19,17,7.19,6.24,0,9.18-2.36,9.18-6.15,0-4.07-3.88-5.39-9.94-8l-9-3.79c-7.39-2.93-14.3-9.08-14.3-19.31,0-11.83,10.6-21.3,25.56-21.3a32.75,32.75,0,0,1,22.91,9.28l-8.43,10.6c-4.63-3.5-9-5.39-14.48-5.39-5.21,0-8.33,2.08-8.33,5.77,0,4,4.36,5.49,10.6,8l8.81,3.5c8.71,3.51,13.91,9.38,13.91,19.32,0,11.73-9.84,22.05-26.88,22.05A39.44,39.44,0,0,1,93.64,673.22Z"/><path class="cls-1" d="M170,625.61H151V611.5h55.1v14.11H187V682H170Z"/><path class="cls-1" d="M217,611.5h17V682H217Z"/><path class="cls-1" d="M246.89,647.19c0-23.48,15.72-36.92,33.61-36.92a30,30,0,0,1,21.39,9.18l-8.8,10.8c-3.6-3.22-7.29-5.49-12.31-5.49-9.09,0-16.56,8.14-16.56,21.86,0,14,6.43,22.15,16.37,22.15,5.68,0,10.13-2.84,13.45-6.43l8.89,10.6a29.3,29.3,0,0,1-23,10.41C262,683.35,246.89,671.05,246.89,647.19Z"/><path class="cls-1" d="M313.25,611.5h16.94v27.93h.29l20-27.93H369l-21.3,28.31L373,682H354.52l-16.66-28.88-7.67,10.42V682H313.25Z"/><path class="cls-1" d="M389.45,657.13,368.24,611.5h18l5.87,15.72c1.89,5.3,3.69,10.22,5.68,15.71h.38c2-5.49,3.88-10.41,5.87-15.71l5.87-15.72h17.7l-21.3,45.63V682H389.45Z"/><path class="cls-1" d="M470.1,625.61h-19V611.5h55.09v14.11H487V682H470.1Z"/><path class="cls-1" d="M517,611.5h17v26.89h23.19V611.5H574V682H557.18v-29H534v29H517Z"/><path class="cls-1" d="M587.09,646.43c0-23.09,13.06-36.16,32.28-36.16s32.28,13.16,32.28,36.16-13.06,36.92-32.28,36.92S587.09,669.53,587.09,646.43Zm47.33,0c0-13.63-5.77-21.67-15-21.67s-15,8-15,21.67,5.68,22.34,15,22.34S634.42,660.06,634.42,646.43Z"/><path class="cls-1" d="M664.33,648.89V611.5h16.85v39.19c0,13.35,4,18.08,11.74,18.08s11.93-4.73,11.93-18.08V611.5h16.28v37.39c0,23.77-9.46,34.46-28.21,34.46S664.33,672.66,664.33,648.89Z"/><path class="cls-1" d="M733.71,647.19c0-23.48,15.81-36.92,34.65-36.92a31.13,31.13,0,0,1,22.53,9.18l-8.9,10.8c-3.5-3.13-7.19-5.49-13.06-5.49-10.41,0-17.89,8.14-17.89,21.86,0,14,6.25,22.15,19.4,22.15a11.92,11.92,0,0,0,6.63-1.79V655.62H765.9V641.8h26.22v32.94c-4.92,4.73-13.63,8.61-23.47,8.61C749.15,683.35,733.71,671.05,733.71,647.19Z"/><path class="cls-1" d="M806.32,611.5h16.94v26.89h23.19V611.5H863.3V682H846.45v-29H823.26v29H806.32Z"/><path class="cls-1" d="M893.21,625.61h-19V611.5h55.1v14.11H910.16V682H893.21Z"/><path class="cls-1" d="M933.16,673.22l9.65-11.64c4.93,4.26,11.46,7.19,17,7.19,6.25,0,9.19-2.36,9.19-6.15,0-4.07-3.89-5.39-9.95-8l-9-3.79c-7.38-2.93-14.29-9.08-14.29-19.31,0-11.83,10.6-21.3,25.56-21.3a32.77,32.77,0,0,1,22.91,9.28l-8.43,10.6c-4.64-3.5-9-5.39-14.48-5.39-5.21,0-8.33,2.08-8.33,5.77,0,4,4.35,5.49,10.6,8l8.8,3.5c8.71,3.51,13.92,9.38,13.92,19.32,0,11.73-9.85,22.05-26.89,22.05A39.41,39.41,0,0,1,933.16,673.22Z"/></svg>